<?xml version="1.0" encoding="UTF-8"?>
<svg version="1.1" xmlns="http://www.w3.org/2000/svg" width="180" height="180">
<path d="M0 0 C2.05078125 0.03255208 4.1015625 0.06510417 6.15234375 0.09765625 C4.56701566 4.65329686 2.16231294 8.41241394 -0.47265625 12.41015625 C-0.89289063 13.05533203 -1.313125 13.70050781 -1.74609375 14.36523438 C-2.77603866 15.94526349 -3.81131253 17.52181672 -4.84765625 19.09765625 C-3.36265625 19.59265625 -3.36265625 19.59265625 -1.84765625 20.09765625 C-0.34556301 22.54264762 0.95981022 24.90448578 2.21484375 27.47265625 C2.57191406 28.20291016 2.92898437 28.93316406 3.296875 29.68554688 C10.15432916 44.20646194 10.0880103 61.90560461 5.15234375 77.09765625 C0.28835059 88.67859235 -5.97257834 95.84486993 -17.359375 101.09765625 C-29.70581871 106.05949234 -43.50514252 105.3798293 -55.71923828 100.32275391 C-57.43294464 99.59088985 -59.14078722 98.84532771 -60.84765625 98.09765625 C-61.39292969 99.03609375 -61.93820313 99.97453125 -62.5 100.94140625 C-68.44329245 110.63164364 -68.44329245 110.63164364 -72.44921875 111.9609375 C-74.71123601 111.91426095 -76.67004932 111.69997306 -78.84765625 111.09765625 C-76.98480271 105.46769888 -73.29466832 101.53700819 -69.55078125 97.03515625 C-67.49865447 94.25911518 -67.49865447 94.25911518 -68.43359375 91.44921875 C-69.65522837 89.41766063 -70.874447 87.42197791 -72.22265625 85.47265625 C-80.69533284 72.21216538 -81.58123654 56.07744694 -78.72265625 40.91015625 C-75.81421404 28.93819644 -70.57840434 19.29012273 -60.2421875 12.34765625 C-48.65354115 5.54811199 -35.05119276 4.04322575 -21.9921875 7.38671875 C-18.14472087 8.66219949 -14.48841611 10.3246148 -10.84765625 12.09765625 C-10.28175781 11.31519531 -9.71585937 10.53273438 -9.1328125 9.7265625 C-8.03259766 8.20869141 -8.03259766 8.20869141 -6.91015625 6.66015625 C-5.81380859 5.14615234 -5.81380859 5.14615234 -4.6953125 3.6015625 C-2.12038352 0.11207101 -2.12038352 0.11207101 0 0 Z M-58.84765625 28.09765625 C-67.05857356 40.51823168 -67.36675055 55.42766913 -64.53515625 69.66015625 C-63.58607171 74.00385003 -62.47388156 77.47225011 -59.84765625 81.09765625 C-59.18765625 81.09765625 -58.52765625 81.09765625 -57.84765625 81.09765625 C-56.5441022 79.58555849 -56.5441022 79.58555849 -55.265625 77.57421875 C-54.75217529 76.80924072 -54.23872559 76.0442627 -53.7097168 75.25610352 C-53.15711182 74.42006592 -52.60450684 73.58402832 -52.03515625 72.72265625 C-47.48461013 65.94507043 -42.84886785 59.25357269 -38.03515625 52.66015625 C-33.7127438 46.7263885 -29.53309726 40.73924966 -25.50390625 34.6015625 C-23.36689487 31.37084482 -21.12573664 28.23001679 -18.84765625 25.09765625 C-19.28799617 23.11745204 -19.28799617 23.11745204 -20.84765625 21.09765625 C-33.6365523 14.34125833 -49.47621531 17.21205236 -58.84765625 28.09765625 Z M-12.84765625 29.09765625 C-18.09197563 35.00895889 -22.51591563 41.46869472 -26.83203125 48.0703125 C-29.46662063 52.02730237 -32.27203794 55.84636986 -35.08203125 59.6796875 C-39.07796687 64.47229367 -39.07796687 64.47229367 -40.84765625 70.09765625 C-41.50765625 70.09765625 -42.16765625 70.09765625 -42.84765625 70.09765625 C-44.56617991 72.4402039 -44.56617991 72.4402039 -46.28515625 75.34765625 C-49.6676989 80.87077125 -49.6676989 80.87077125 -51.5703125 83.26953125 C-53.13403465 85.1358243 -53.13403465 85.1358243 -52.84765625 88.09765625 C-43.05769113 92.41449126 -34.38999373 93.80734155 -24.03515625 90.53515625 C-15.3784129 86.94790145 -11.51736456 81.32746304 -7.79296875 72.94140625 C-3.72419252 60.70145132 -4.25106987 44.11872215 -9.97265625 32.47265625 C-10.90078125 30.80203125 -10.90078125 30.80203125 -11.84765625 29.09765625 C-12.17765625 29.09765625 -12.50765625 29.09765625 -12.84765625 29.09765625 Z " fill="#E6E6E6" transform="translate(125.84765625,35.90234375)"/>
</svg>
